<svg width="15" height="17" viewBox="0 0 15 17" fill="none" xmlns="http://www.w3.org/2000/svg">
<g clip-path="url(#clip0_376_708)">
<path d="M7.50028 16.3569C3.53099 15.4747 0.357422 11.7297 0.357422 7.78544V3.49972L7.50028 0.642578L14.6431 3.49972V7.78544C14.6431 11.7311 11.4696 15.4747 7.50028 16.3569ZM1.78599 4.21401V7.78544C1.82681 9.43696 2.40768 11.0296 3.43969 12.3196C4.4717 13.6096 5.898 14.5259 7.50028 14.9283C9.10256 14.5259 10.5289 13.6096 11.5609 12.3196C12.5929 11.0296 13.1737 9.43696 13.2146 7.78544V4.21401L7.50028 2.07115L1.78599 4.21401Z" fill="#003794"/>
<path d="M7.49958 7.7853C8.4858 7.7853 9.2853 6.9858 9.2853 5.99958C9.2853 5.01336 8.4858 4.21387 7.49958 4.21387C6.51336 4.21387 5.71387 5.01336 5.71387 5.99958C5.71387 6.9858 6.51336 7.7853 7.49958 7.7853Z" fill="#003794"/>
<path d="M3.92871 10.6429C4.28066 11.2845 4.79685 11.8211 5.42441 12.1976C6.05197 12.5742 6.76834 12.7771 7.50014 12.7857C8.23194 12.7771 8.94831 12.5742 9.57587 12.1976C10.2034 11.8211 10.7196 11.2845 11.0716 10.6429C11.0537 9.28857 8.68443 8.5 7.50014 8.5C6.30943 8.5 3.94657 9.28857 3.92871 10.6429Z" fill="#003794"/>
</g>
<defs>
<clipPath id="clip0_376_708">
<rect width="14.8571" height="16" fill="white" transform="translate(0.0712891 0.5)"/>
</clipPath>
</defs>
</svg>
