<svg width="19" height="17" viewBox="0 0 19 17" fill="none" xmlns="http://www.w3.org/2000/svg">
<path d="M8.375 6.25031V8.50031H6.125V10.7503H8.375V13.0003H10.625V10.7503H12.875V8.50031H10.625V6.25031H8.375ZM11.75 7.37531H14V11.8753H11.75V14.1253H7.25V11.8753H5V7.37531H7.25V5.12531H11.75V7.37531ZM16.8125 2.87531C17.0469 2.87531 17.2666 2.91926 17.4717 3.00715C17.6768 3.09504 17.8555 3.21516 18.0078 3.3675C18.1602 3.51985 18.2803 3.69856 18.3682 3.90363C18.4561 4.10871 18.5 4.32844 18.5 4.56281V14.6878C18.5 14.9222 18.4561 15.1419 18.3682 15.347C18.2803 15.5521 18.1602 15.7308 18.0078 15.8831C17.8555 16.0355 17.6768 16.1556 17.4717 16.2435C17.2666 16.3314 17.0469 16.3753 16.8125 16.3753H2.1875C1.95312 16.3753 1.7334 16.3314 1.52832 16.2435C1.32324 16.1556 1.14453 16.0355 0.992188 15.8831C0.839844 15.7308 0.719727 15.5521 0.631836 15.347C0.543945 15.1419 0.5 14.9222 0.5 14.6878V4.56281C0.5 4.32844 0.543945 4.10871 0.631836 3.90363C0.719727 3.69856 0.839844 3.51985 0.992188 3.3675C1.14453 3.21516 1.32324 3.09504 1.52832 3.00715C1.7334 2.91926 1.95312 2.87531 2.1875 2.87531H5C5 2.65852 4.99707 2.41828 4.99121 2.15461C4.98535 1.89094 5.01172 1.64777 5.07031 1.42512C5.12891 1.20246 5.2373 1.01203 5.39551 0.85383C5.55371 0.695626 5.79688 0.619455 6.125 0.625314H12.875C13.0918 0.625314 13.2705 0.66047 13.4111 0.730783C13.5518 0.801095 13.6631 0.894845 13.7451 1.01203C13.8271 1.12922 13.8857 1.26399 13.9209 1.41633C13.9561 1.56867 13.9824 1.72981 14 1.89973C14.0176 2.06965 14.0205 2.23664 14.0088 2.4007C13.9971 2.56477 13.9941 2.72297 14 2.87531H16.8125ZM6.125 2.87531H12.875V1.75031H6.125V2.87531ZM17.375 4.56281C17.375 4.41047 17.3193 4.27863 17.208 4.16731C17.0967 4.05598 16.9648 4.00031 16.8125 4.00031H2.1875C2.03516 4.00031 1.90332 4.05598 1.79199 4.16731C1.68066 4.27863 1.625 4.41047 1.625 4.56281V14.6878C1.625 14.8402 1.68066 14.972 1.79199 15.0833C1.90332 15.1947 2.03516 15.2503 2.1875 15.2503H16.8125C16.9648 15.2503 17.0967 15.1947 17.208 15.0833C17.3193 14.972 17.375 14.8402 17.375 14.6878V4.56281Z" fill="#003794"/>
</svg>
