<svg width="17" height="18" viewBox="0 0 17 18" fill="none" xmlns="http://www.w3.org/2000/svg">
<path d="M7.04395 5.979C6.72127 5.979 6.45367 6.2466 6.45367 6.56928V10.2605C6.45367 10.5359 6.59534 10.7878 6.82358 10.9295L9.6884 12.6924C9.81572 12.7697 9.96852 12.7931 10.1132 12.7577C10.2578 12.7223 10.3825 12.6309 10.4597 12.5035C10.5369 12.3762 10.5604 12.2234 10.525 12.0788C10.4896 11.9341 10.3981 11.8095 10.2708 11.7322L7.63423 10.1503V6.56928C7.63423 6.2466 7.36664 5.979 7.04395 5.979Z" fill="#003794"/>
<path d="M12.687 9.12735C12.8057 9.90962 12.7534 10.7083 12.5337 11.4684C12.314 12.2285 11.9323 12.932 11.4146 13.5304C10.897 14.1288 10.2559 14.6079 9.53532 14.9348C8.81477 15.2616 8.03194 15.4284 7.24074 15.4236C4.1713 15.4236 1.73148 12.9838 1.73148 9.91439C1.73148 6.84494 4.1713 4.40513 7.24074 4.40513C7.79167 4.40513 8.31898 4.48383 8.81482 4.63337V3.01207C8.31111 2.89402 7.7838 2.83105 7.24074 2.83105C3.30556 2.83105 0.15741 5.9792 0.15741 9.91439C0.15741 13.8496 3.30556 16.9977 7.24074 16.9977C8.23846 17.0019 9.2257 16.7943 10.1373 16.3888C11.0489 15.9832 11.8641 15.3889 12.529 14.6451C13.194 13.9013 13.6936 13.0249 13.9949 12.0738C14.2962 11.1226 14.3923 10.1184 14.2769 9.12735H12.687Z" fill="#003794"/>
<path d="M15.8982 3.61795H14.3241V2.04387C14.3241 1.611 13.9699 1.25684 13.5371 1.25684C13.1042 1.25684 12.75 1.611 12.75 2.04387V3.61795H11.176C10.7431 3.61795 10.3889 3.97211 10.3889 4.40498C10.3889 4.83785 10.7431 5.19202 11.176 5.19202H12.75V6.7661C12.75 7.19897 13.1042 7.55313 13.5371 7.55313C13.9699 7.55313 14.3241 7.19897 14.3241 6.7661V5.19202H15.8982C16.331 5.19202 16.6852 4.83785 16.6852 4.40498C16.6852 3.97211 16.331 3.61795 15.8982 3.61795Z" fill="#003794"/>
</svg>
