<svg width="19" height="19" viewBox="0 0 19 19" fill="none" xmlns="http://www.w3.org/2000/svg">
<path d="M18.5 14.3652V15.4902H12.8223L14.6768 17.3447L13.8857 18.1357L10.6777 14.9277L13.8857 11.7197L14.6768 12.5107L12.8223 14.3652H18.5ZM11.8555 10.5596L11.082 11.377C10.5605 10.8848 9.97168 10.5098 9.31543 10.252C8.65918 9.99414 7.9707 9.86523 7.25 9.86523C6.73438 9.86523 6.23633 9.93262 5.75586 10.0674C5.27539 10.2021 4.82715 10.3896 4.41113 10.6299C3.99512 10.8701 3.61719 11.1631 3.27734 11.5088C2.9375 11.8545 2.64453 12.2354 2.39844 12.6514C2.15234 13.0674 1.96191 13.5156 1.82715 13.9961C1.69238 14.4766 1.625 14.9746 1.625 15.4902H0.5C0.5 14.8047 0.602539 14.1338 0.807617 13.4775C1.0127 12.8213 1.30859 12.2148 1.69531 11.6582C2.08203 11.1016 2.54199 10.6064 3.0752 10.1729C3.6084 9.73926 4.20312 9.4082 4.85938 9.17969C4.53125 8.96875 4.23828 8.72559 3.98047 8.4502C3.72266 8.1748 3.5 7.87305 3.3125 7.54492C3.125 7.2168 2.9873 6.87109 2.89941 6.50781C2.81152 6.14453 2.76172 5.76367 2.75 5.36523C2.75 4.74414 2.86719 4.16113 3.10156 3.61621C3.33594 3.07129 3.65527 2.59375 4.05957 2.18359C4.46387 1.77344 4.94141 1.45117 5.49219 1.2168C6.04297 0.982422 6.62891 0.865234 7.25 0.865234C7.87109 0.865234 8.4541 0.982422 8.99902 1.2168C9.54395 1.45117 10.0215 1.77051 10.4316 2.1748C10.8418 2.5791 11.1641 3.05664 11.3984 3.60742C11.6328 4.1582 11.75 4.74414 11.75 5.36523C11.75 6.16797 11.5654 6.89453 11.1963 7.54492C10.8271 8.19531 10.3086 8.74023 9.64062 9.17969C10.0508 9.33203 10.4404 9.52539 10.8096 9.75977C11.1787 9.99414 11.5273 10.2607 11.8555 10.5596ZM3.875 5.36523C3.875 5.83398 3.96289 6.27051 4.13867 6.6748C4.31445 7.0791 4.55469 7.43652 4.85938 7.74707C5.16406 8.05762 5.52148 8.30078 5.93164 8.47656C6.3418 8.65234 6.78125 8.74023 7.25 8.74023C7.71289 8.74023 8.14941 8.65234 8.55957 8.47656C8.96973 8.30078 9.32715 8.06055 9.63184 7.75586C9.93652 7.45117 10.1797 7.09375 10.3613 6.68359C10.543 6.27344 10.6309 5.83398 10.625 5.36523C10.625 4.90234 10.5371 4.46582 10.3613 4.05566C10.1855 3.64551 9.94531 3.28809 9.64062 2.9834C9.33594 2.67871 8.97559 2.43555 8.55957 2.25391C8.14355 2.07227 7.70703 1.98438 7.25 1.99023C6.78125 1.99023 6.34473 2.07812 5.94043 2.25391C5.53613 2.42969 5.17871 2.66992 4.86816 2.97461C4.55762 3.2793 4.31445 3.63965 4.13867 4.05566C3.96289 4.47168 3.875 4.9082 3.875 5.36523Z" fill="#003794"/>
</svg>
