<svg width="19" height="19" viewBox="0 0 19 19" fill="none" xmlns="http://www.w3.org/2000/svg">
<path fill-rule="evenodd" clip-rule="evenodd" d="M12.773 7.04519C12.773 7.91317 12.4282 8.7456 11.8144 9.35936C11.2007 9.97311 10.3682 10.3179 9.50027 10.3179C8.63229 10.3179 7.79985 9.97311 7.1861 9.35936C6.57234 8.7456 6.22754 7.91317 6.22754 7.04519C6.22754 6.17721 6.57234 5.34478 7.1861 4.73102C7.79985 4.11726 8.63229 3.77246 9.50027 3.77246C10.3682 3.77246 11.2007 4.11726 11.8144 4.73102C12.4282 5.34478 12.773 6.17721 12.773 7.04519ZM11.1366 7.04519C11.1366 7.47918 10.9642 7.89539 10.6573 8.20227C10.3505 8.50915 9.93426 8.68155 9.50027 8.68155C9.06628 8.68155 8.65006 8.50915 8.34318 8.20227C8.03631 7.89539 7.8639 7.47918 7.8639 7.04519C7.8639 6.6112 8.03631 6.19498 8.34318 5.8881C8.65006 5.58123 9.06628 5.40882 9.50027 5.40882C9.93426 5.40882 10.3505 5.58123 10.6573 5.8881C10.9642 6.19498 11.1366 6.6112 11.1366 7.04519Z" fill="#003794"/>
<path fill-rule="evenodd" clip-rule="evenodd" d="M9.5 0.5C4.52955 0.5 0.5 4.52955 0.5 9.5C0.5 14.4705 4.52955 18.5 9.5 18.5C14.4705 18.5 18.5 14.4705 18.5 9.5C18.5 4.52955 14.4705 0.5 9.5 0.5ZM2.13636 9.5C2.13636 11.21 2.71973 12.7842 3.69745 14.0344C4.3841 13.1326 5.26992 12.4019 6.28572 11.8992C7.30152 11.3964 8.41979 11.1354 9.55318 11.1364C10.6719 11.1353 11.7761 11.3896 12.7817 11.8799C13.7872 12.3702 14.6676 13.0836 15.3557 13.9656C16.0646 13.0359 16.542 11.9506 16.7482 10.7998C16.9544 9.64888 16.8836 8.46544 16.5417 7.34735C16.1997 6.22926 15.5965 5.20868 14.7818 4.37003C13.9671 3.53139 12.9644 2.89879 11.8567 2.5246C10.749 2.1504 9.56807 2.04536 8.4117 2.21816C7.25534 2.39096 6.15674 2.83664 5.20681 3.51832C4.25688 4.19999 3.48294 5.09808 2.94901 6.13825C2.41508 7.17843 2.13651 8.33079 2.13636 9.5ZM9.5 16.8636C7.8096 16.8662 6.17022 16.2846 4.85927 15.2175C5.38694 14.4621 6.08928 13.8453 6.90652 13.4197C7.72377 12.994 8.63174 12.7721 9.55318 12.7727C10.4631 12.772 11.3601 12.9884 12.1697 13.4039C12.9792 13.8194 13.6779 14.4221 14.2078 15.1618C12.8867 16.2637 11.2203 16.866 9.5 16.8636Z" fill="#003794"/>
</svg>
