<svg width="17" height="18" viewBox="0 0 17 18" fill="none" xmlns="http://www.w3.org/2000/svg">
<g clip-path="url(#clip0_853_336)">
<path d="M11.8705 12.1695C12.371 11.9006 12.9439 11.7476 13.554 11.7476H13.5561C13.6181 11.7476 13.6471 11.6731 13.6016 11.6318C12.9671 11.0624 12.2423 10.6025 11.4569 10.271C11.4486 10.2668 11.4404 10.2647 11.4321 10.2606C12.7164 9.32789 13.5519 7.81195 13.5519 6.10161C13.5519 3.26828 11.2604 0.972656 8.43331 0.972656C5.60619 0.972656 3.31677 3.26828 3.31677 6.10161C3.31677 7.81195 4.15229 9.32789 5.43867 10.2606C5.43039 10.2647 5.42212 10.2668 5.41385 10.271C4.4894 10.6618 3.66008 11.2223 2.94658 11.9379C2.23718 12.646 1.67242 13.4854 1.2838 14.4093C0.901432 15.314 0.695071 16.2833 0.675772 17.2654C0.67522 17.2874 0.679092 17.3094 0.687159 17.3299C0.695226 17.3505 0.707325 17.3692 0.722744 17.385C0.738163 17.4008 0.756589 17.4134 0.776937 17.422C0.797285 17.4305 0.819142 17.435 0.841222 17.4349H2.08003C2.16896 17.4349 2.24341 17.3626 2.24548 17.2736C2.28684 15.677 2.92589 14.1818 4.05716 13.0484C5.22565 11.8758 6.78088 11.2306 8.43538 11.2306C9.60801 11.2306 10.7331 11.5553 11.703 12.1633C11.7279 12.1789 11.7565 12.1878 11.786 12.1889C11.8154 12.1899 11.8445 12.1833 11.8705 12.1695ZM8.43538 9.65879C7.48818 9.65879 6.59682 9.28859 5.92468 8.61645C5.59397 8.28661 5.3318 7.89458 5.15327 7.46297C4.97473 7.03136 4.88336 6.56869 4.88441 6.10161C4.88441 5.15234 5.2546 4.25891 5.92468 3.58677C6.59475 2.91463 7.48611 2.54443 8.43538 2.54443C9.38465 2.54443 10.2739 2.91463 10.9461 3.58677C11.2768 3.91662 11.539 4.30864 11.7175 4.74025C11.896 5.17186 11.9874 5.63453 11.9864 6.10161C11.9864 7.05088 11.6162 7.94431 10.9461 8.61645C10.2739 9.28859 9.38259 9.65879 8.43538 9.65879ZM16.042 14.5809H14.3047V12.8437C14.3047 12.7527 14.2303 12.6783 14.1393 12.6783H12.9811C12.8901 12.6783 12.8157 12.7527 12.8157 12.8437V14.5809H11.0784C10.9875 14.5809 10.913 14.6554 10.913 14.7464V15.9045C10.913 15.9955 10.9875 16.07 11.0784 16.07H12.8157V17.8072C12.8157 17.8982 12.8901 17.9727 12.9811 17.9727H14.1393C14.2303 17.9727 14.3047 17.8982 14.3047 17.8072V16.07H16.042C16.1329 16.07 16.2074 15.9955 16.2074 15.9045V14.7464C16.2074 14.6554 16.1329 14.5809 16.042 14.5809Z" fill="#003794"/>
</g>
<defs>
<clipPath id="clip0_853_336">
<rect width="16" height="18" fill="white" transform="translate(0.5)"/>
</clipPath>
</defs>
</svg>
