<svg width="15" height="19" viewBox="0 0 15 19" fill="none" xmlns="http://www.w3.org/2000/svg">
<path d="M13.1953 2.54004H11.2969V1.90723C11.2969 1.57156 11.1635 1.24965 10.9262 1.01229C10.6888 0.774944 10.3669 0.641602 10.0312 0.641602H4.96875C4.63309 0.641602 4.31117 0.774944 4.07382 1.01229C3.83647 1.24965 3.70312 1.57156 3.70312 1.90723V2.54004H1.80469C1.46902 2.54004 1.14711 2.67338 0.909755 2.91073C0.672405 3.14808 0.539063 3.47 0.539062 3.80566V17.0947C0.539063 17.4304 0.672405 17.7523 0.909755 17.9897C1.14711 18.227 1.46902 18.3604 1.80469 18.3604H13.1953C13.531 18.3604 13.8529 18.227 14.0902 17.9897C14.3276 17.7523 14.4609 17.4304 14.4609 17.0947V3.80566C14.4609 3.47 14.3276 3.14808 14.0902 2.91073C13.8529 2.67338 13.531 2.54004 13.1953 2.54004ZM4.96875 1.90723H10.0312V4.43848H4.96875V1.90723ZM13.1953 17.0947H1.80469V3.80566H3.70312V5.7041H11.2969V3.80566H13.1953V17.0947Z" fill="#003794"/>
</svg>
