<svg width="17" height="18" viewBox="0 0 17 18" fill="none" xmlns="http://www.w3.org/2000/svg">
<path d="M7.86719 11.5322H9.13281V14.0635H7.86719V11.5322ZM11.0312 10.2666H12.2969V14.0635H11.0312V10.2666ZM4.70312 7.73535H5.96875V14.0635H4.70312V7.73535Z" fill="#003794"/>
<path d="M14.1953 2.04004H12.2969V1.40723C12.2969 1.07156 12.1635 0.749645 11.9262 0.512294C11.6888 0.274944 11.3669 0.141602 11.0312 0.141602H5.96875C5.63309 0.141602 5.31117 0.274944 5.07382 0.512294C4.83647 0.749645 4.70312 1.07156 4.70312 1.40723V2.04004H2.80469C2.46902 2.04004 2.14711 2.17338 1.90976 2.41073C1.6724 2.64808 1.53906 2.97 1.53906 3.30566V16.5947C1.53906 16.9304 1.6724 17.2523 1.90976 17.4897C2.14711 17.727 2.46902 17.8604 2.80469 17.8604H14.1953C14.531 17.8604 14.8529 17.727 15.0902 17.4897C15.3276 17.2523 15.4609 16.9304 15.4609 16.5947V3.30566C15.4609 2.97 15.3276 2.64808 15.0902 2.41073C14.8529 2.17338 14.531 2.04004 14.1953 2.04004ZM5.96875 1.40723H11.0312V3.93848H5.96875V1.40723ZM14.1953 16.5947H2.80469V3.30566H4.70312V5.2041H12.2969V3.30566H14.1953V16.5947Z" fill="#003794"/>
</svg>
